# xmcd
#
# Track frame offsets:
#	150
#	11100
#	27958
#	43432
#	58581
#	73331
#	84749
#	94349
#	105497
#	118303
#	131036
#	146095
#	159457
#
# Disc length: 2149 seconds
#
# Revision: 1
# Processed by: cddbd v1.4PL0 Copyright (c) Steve Scherf et al.
# Submitted via: audiograbber 1.80
#
DISCID=c508630d
DTITLE=Teddy Nelson - Honky Tonk Man
DYEAR=1900
DGENRE=
TTITLE0=Honky Tonk Man
TTITLE1=Semi-Truck
TTITLE2=Skilsmisseferd I Hardanger
TTITLE3=Island Of Love
TTITLE4=I'm Walking In The Sunshine
TTITLE5=You Can Call Me A Cheater
TTITLE6=Why Do You Keep On Hurting Me
TTITLE7=Boxcar Wayne
TTITLE8=Memories
TTITLE9=Don't You Knock On The Door
TTITLE10=Jack Corey
TTITLE11=It May Rain
TTITLE12=Another Bottle
EXTD=
EXTT0=
EXTT1=
EXTT2=
EXTT3=
EXTT4=
EXTT5=
EXTT6=
EXTT7=
EXTT8=
EXTT9=
EXTT10=
EXTT11=
EXTT12=
PLAYORDER=
